<?xml version="1.0" encoding="UTF-8"?>
<!DOCTYPE svg PUBLIC "-//W3C//DTD SVG 1.1//EN" "http://www.w3.org/Graphics/SVG/1.1/DTD/svg11.dtd">
<svg xmlns="http://www.w3.org/2000/svg" version="1.1" width="500px" height="500px" style="shape-rendering:geometricPrecision; text-rendering:geometricPrecision; image-rendering:optimizeQuality; fill-rule:evenodd; clip-rule:evenodd" xmlns:xlink="http://www.w3.org/1999/xlink">
<g><path style="opacity:0.404" fill="#f95f5e" d="M 35.5,171.5 C 34.1667,173.5 32.5,175.167 30.5,176.5C 31.1667,173.833 32.8333,172.167 35.5,171.5 Z"/></g>
<g><path style="opacity:1" fill="#e1e4ed" d="M 47.5,175.5 C 47.4142,176.496 47.7476,177.329 48.5,178C 51.146,178.497 53.8127,178.664 56.5,178.5C 56.5,181.5 56.5,184.5 56.5,187.5C 60.0419,187.187 63.3752,187.521 66.5,188.5C 57.671,189.899 48.671,190.566 39.5,190.5C 30.329,190.566 21.329,189.899 12.5,188.5C 15.6248,187.521 18.9581,187.187 22.5,187.5C 22.5,184.5 22.5,181.5 22.5,178.5C 25.6981,179.036 28.3647,178.369 30.5,176.5C 32.5,175.167 34.1667,173.5 35.5,171.5C 40.6561,169.462 44.6561,170.795 47.5,175.5 Z"/></g>
<g><path style="opacity:0.072" fill="#f53b39" d="M 30.5,176.5 C 28.3647,178.369 25.6981,179.036 22.5,178.5C 17.5,178.5 12.5,178.5 7.5,178.5C 15.0671,177.804 22.7338,177.137 30.5,176.5 Z"/></g>
<g><path style="opacity:0.09" fill="#f53d3a" d="M 47.5,175.5 C 48.2891,175.783 48.9558,176.283 49.5,177C 57.0115,177.171 64.3448,177.671 71.5,178.5C 66.5,178.5 61.5,178.5 56.5,178.5C 53.8127,178.664 51.146,178.497 48.5,178C 47.7476,177.329 47.4142,176.496 47.5,175.5 Z"/></g>
<g><path style="opacity:0.999" fill="#915e4c" d="M 7.5,178.5 C 12.5,178.5 17.5,178.5 22.5,178.5C 22.5,181.5 22.5,184.5 22.5,187.5C 18.9581,187.187 15.6248,187.521 12.5,188.5C 11.3364,215.997 11.1697,243.664 12,271.5C 27.4221,272.491 42.9221,272.824 58.5,272.5C 58.5,275.5 58.5,278.5 58.5,281.5C 41.1667,281.5 23.8333,281.5 6.5,281.5C 4.59565,281.262 3.26231,280.262 2.5,278.5C 2.18102,245.79 2.51435,213.123 3.5,180.5C 4.28696,178.896 5.6203,178.229 7.5,178.5 Z"/></g>
<g><path style="opacity:0.999" fill="#915c4b" d="M 56.5,178.5 C 61.5,178.5 66.5,178.5 71.5,178.5C 72.791,178.263 73.791,178.596 74.5,179.5C 74.4614,180.756 74.9614,181.756 76,182.5C 76.4997,190.493 76.6664,198.493 76.5,206.5C 75.209,206.263 74.209,206.596 73.5,207.5C 71.2163,207.975 69.2163,208.975 67.5,210.5C 67.825,202.981 67.4916,195.648 66.5,188.5C 63.3752,187.521 60.0419,187.187 56.5,187.5C 56.5,184.5 56.5,181.5 56.5,178.5 Z"/></g>
<g><path style="opacity:0.605" fill="#bc4a3f" d="M 3.5,180.5 C 2.51435,213.123 2.18102,245.79 2.5,278.5C 1.81843,248.313 1.15176,217.98 0.5,187.5C 0.760574,184.708 1.76057,182.375 3.5,180.5 Z"/></g>
<g><path style="opacity:0.487" fill="#cd473e" d="M 74.5,179.5 C 75.4584,179.953 76.2917,180.619 77,181.5C 77.4997,189.493 77.6664,197.493 77.5,205.5C 79.7354,205.205 81.7354,205.539 83.5,206.5C 81.1667,206.5 78.8333,206.5 76.5,206.5C 76.6664,198.493 76.4997,190.493 76,182.5C 74.9614,181.756 74.4614,180.756 74.5,179.5 Z"/></g>
<g><path style="opacity:1" fill="#fcfcfc" d="M 12.5,188.5 C 21.329,189.899 30.329,190.566 39.5,190.5C 48.671,190.566 57.671,189.899 66.5,188.5C 67.4916,195.648 67.825,202.981 67.5,210.5C 65.7459,214.258 65.0792,218.258 65.5,222.5C 64.209,222.263 63.209,222.596 62.5,223.5C 59.088,225.251 57.7546,228.084 58.5,232C 57.8151,236.119 59.1484,239.286 62.5,241.5C 63.209,242.404 64.209,242.737 65.5,242.5C 65.3316,246.658 65.9983,250.658 67.5,254.5C 67.5,258.833 67.5,263.167 67.5,267.5C 63.7793,267.891 60.7793,269.558 58.5,272.5C 42.9221,272.824 27.4221,272.491 12,271.5C 11.1697,243.664 11.3364,215.997 12.5,188.5 Z"/></g>
<g><path style="opacity:1" fill="#afbece" d="M 38.5,199.5 C 44.8421,199.334 51.1754,199.5 57.5,200C 58.8333,201.333 58.8333,202.667 57.5,204C 51.1667,204.667 44.8333,204.667 38.5,204C 37.2721,202.51 37.2721,201.01 38.5,199.5 Z"/></g>
<g><path style="opacity:1" fill="#c5a8b2" d="M 107.5,205.5 C 107.5,205.833 107.5,206.167 107.5,206.5C 104.384,205.925 101.217,205.591 98,205.5C 90.0166,207.136 81.85,207.803 73.5,207.5C 74.209,206.596 75.209,206.263 76.5,206.5C 78.8333,206.5 81.1667,206.5 83.5,206.5C 87.3488,206.498 90.0155,204.665 91.5,201C 95.8333,197.667 100.167,197.667 104.5,201C 106.141,202.129 107.141,203.629 107.5,205.5 Z"/></g>
<g><path style="opacity:1" fill="#72c780" d="M 28.5,199.5 C 31.6802,199.176 32.8469,200.51 32,203.5C 29.5,206.667 27,209.833 24.5,213C 20.6667,213.167 18.8333,211.333 19,207.5C 23.2807,206.766 26.4473,204.1 28.5,199.5 Z"/></g>
<g><path style="opacity:1" fill="#dae1ea" d="M 107.5,206.5 C 112.64,207.488 117.974,207.821 123.5,207.5C 123.424,210.767 124.757,212.101 127.5,211.5C 128.518,212.193 129.518,212.859 130.5,213.5C 131.404,214.209 131.737,215.209 131.5,216.5C 131.5,218.833 131.5,221.167 131.5,223.5C 131.5,229.5 131.5,235.5 131.5,241.5C 131.5,243.833 131.5,246.167 131.5,248.5C 130.576,253.755 127.576,257.088 122.5,258.5C 116.833,258.5 111.167,258.5 105.5,258.5C 100.833,258.5 96.1667,258.5 91.5,258.5C 86.5,258.5 81.5,258.5 76.5,258.5C 73.122,257.977 70.122,256.644 67.5,254.5C 65.9983,250.658 65.3316,246.658 65.5,242.5C 64.209,242.737 63.209,242.404 62.5,241.5C 63.5,241.5 64.5,241.5 65.5,241.5C 65.5,235.5 65.5,229.5 65.5,223.5C 64.5,223.5 63.5,223.5 62.5,223.5C 63.209,222.596 64.209,222.263 65.5,222.5C 65.0792,218.258 65.7459,214.258 67.5,210.5C 69.2163,208.975 71.2163,207.975 73.5,207.5C 81.85,207.803 90.0166,207.136 98,205.5C 101.217,205.591 104.384,205.925 107.5,206.5 Z"/></g>
<g><path style="opacity:1" fill="#f7a19e" d="M 107.5,205.5 C 112.511,205.334 117.511,205.501 122.5,206C 126.344,207.347 129.011,209.847 130.5,213.5C 129.518,212.859 128.518,212.193 127.5,211.5C 124.757,212.101 123.424,210.767 123.5,207.5C 117.974,207.821 112.64,207.488 107.5,206.5C 107.5,206.167 107.5,205.833 107.5,205.5 Z"/></g>
<g><path style="opacity:1" fill="#adbccd" d="M 37.5,209.5 C 41.8461,209.334 46.1794,209.501 50.5,210C 51.8333,211 51.8333,212 50.5,213C 46.1794,213.499 41.8461,213.666 37.5,213.5C 37.5,212.167 37.5,210.833 37.5,209.5 Z"/></g>
<g><path style="opacity:1" fill="#358092" d="M 73.5,211.5 C 89.8367,211.333 106.17,211.5 122.5,212C 123.667,213.167 124.833,214.333 126,215.5C 126.957,227.264 126.623,238.93 125,250.5C 124.097,251.701 122.931,252.535 121.5,253C 105.5,253.667 89.5,253.667 73.5,253C 72.6667,252.167 71.8333,251.333 71,250.5C 70.3333,238.5 70.3333,226.5 71,214.5C 72.045,213.627 72.8783,212.627 73.5,211.5 Z"/></g>
<g><path style="opacity:0.036" fill="#f93f3f" d="M 131.5,216.5 C 132.105,218.974 133.105,221.307 134.5,223.5C 133.5,223.5 132.5,223.5 131.5,223.5C 131.5,221.167 131.5,218.833 131.5,216.5 Z"/></g>
<g><path style="opacity:1" fill="#7ce4f7" d="M 80.5,218.5 C 87.1623,217.997 89.6623,220.997 88,227.5C 84.6667,231.5 81.3333,231.5 78,227.5C 76.7795,223.718 77.6128,220.718 80.5,218.5 Z"/></g>
<g><path style="opacity:1" fill="#7ce4f7" d="M 110.5,218.5 C 120.228,219.032 121.894,222.865 115.5,230C 112.083,230.876 109.583,229.709 108,226.5C 107.018,223.225 107.851,220.559 110.5,218.5 Z"/></g>
<g><path style="opacity:1" fill="#adbccd" d="M 37.5,223.5 C 42.8333,223.5 48.1667,223.5 53.5,223.5C 53.5,224.833 53.5,226.167 53.5,227.5C 48.1667,227.5 42.8333,227.5 37.5,227.5C 37.5,226.167 37.5,224.833 37.5,223.5 Z"/></g>
<g><path style="opacity:1" fill="#adbdcd" d="M 62.5,223.5 C 63.5,223.5 64.5,223.5 65.5,223.5C 65.5,229.5 65.5,235.5 65.5,241.5C 64.5,241.5 63.5,241.5 62.5,241.5C 59.1484,239.286 57.8151,236.119 58.5,232C 57.7546,228.084 59.088,225.251 62.5,223.5 Z"/></g>
<g><path style="opacity:1" fill="#b1b3c3" d="M 131.5,223.5 C 132.5,223.5 133.5,223.5 134.5,223.5C 135.833,224.167 136.833,225.167 137.5,226.5C 137.5,230.5 137.5,234.5 137.5,238.5C 136.833,239.833 135.833,240.833 134.5,241.5C 133.5,241.5 132.5,241.5 131.5,241.5C 131.5,235.5 131.5,229.5 131.5,223.5 Z"/></g>
<g><path style="opacity:1" fill="#75c882" d="M 28.5,223.5 C 30.3464,223.222 31.6798,223.889 32.5,225.5C 29.9566,229.421 27.2899,233.254 24.5,237C 20.3474,237.01 18.3474,234.843 18.5,230.5C 20.1992,230.66 21.8659,230.494 23.5,230C 25.0544,227.713 26.7211,225.546 28.5,223.5 Z"/></g>
<g><path style="opacity:0.65" fill="#e06c6e" d="M 137.5,226.5 C 140.167,230.5 140.167,234.5 137.5,238.5C 137.5,234.5 137.5,230.5 137.5,226.5 Z"/></g>
<g><path style="opacity:1" fill="#b2c0d0" d="M 37.5,232.5 C 41.8461,232.334 46.1794,232.501 50.5,233C 51.8333,234.333 51.8333,235.667 50.5,237C 46.5,237.667 42.5,237.667 38.5,237C 37.6198,235.644 37.2865,234.144 37.5,232.5 Z"/></g>
<g><path style="opacity:0.245" fill="#e25240" d="M 171.5,236.5 C 168.167,236.5 164.833,236.5 161.5,236.5C 164.799,233.954 168.132,233.954 171.5,236.5 Z"/></g>
<g><path style="opacity:0.261" fill="#e4503e" d="M 223.5,236.5 C 217.5,236.5 211.5,236.5 205.5,236.5C 206.312,235.007 207.645,234.34 209.5,234.5C 212.833,235.833 216.167,235.833 219.5,234.5C 221.355,234.34 222.688,235.007 223.5,236.5 Z"/></g>
<g><path style="opacity:0.241" fill="#e05341" d="M 239.5,236.5 C 238.167,236.5 236.833,236.5 235.5,236.5C 236.634,234.219 237.968,234.219 239.5,236.5 Z"/></g>
<g><path style="opacity:0.182" fill="#cc4549" d="M 471.5,236.5 C 466.167,236.5 460.833,236.5 455.5,236.5C 460.988,234.614 466.322,234.614 471.5,236.5 Z"/></g>
<g><path style="opacity:1" fill="#88ba76" d="M 161.5,236.5 C 164.833,236.5 168.167,236.5 171.5,236.5C 173.38,236.229 174.713,236.896 175.5,238.5C 179.228,254.771 172.895,262.438 156.5,261.5C 155.646,260.368 155.646,259.035 156.5,257.5C 157.451,256.081 157.784,254.415 157.5,252.5C 157.205,250.265 157.539,248.265 158.5,246.5C 159.993,243.417 160.993,240.083 161.5,236.5 Z M 172.5,251.5 C 172.443,252.609 172.11,253.609 171.5,254.5C 170.167,255.167 169.167,256.167 168.5,257.5C 167.508,257.328 166.842,257.662 166.5,258.5C 165.167,258.5 163.833,258.5 162.5,258.5C 163.036,252.748 164.036,247.081 165.5,241.5C 168.282,240.048 170.782,240.381 173,242.5C 173.301,245.507 173.135,248.507 172.5,251.5 Z"/></g>
<g><path style="opacity:1" fill="#89b877" d="M 189.5,236.5 C 191.451,236.227 192.951,236.893 194,238.5C 195.538,246.096 196.371,253.763 196.5,261.5C 195.5,261.5 194.5,261.5 193.5,261.5C 193.5,261.167 193.5,260.833 193.5,260.5C 193.5,258.5 193.5,256.5 193.5,254.5C 189.774,254.177 186.107,254.511 182.5,255.5C 181.639,257.911 180.306,259.911 178.5,261.5C 177.075,263.031 176.409,262.698 176.5,260.5C 177.674,259.486 178.34,258.153 178.5,256.5C 178.328,255.508 178.662,254.842 179.5,254.5C 181.588,252.664 182.921,250.331 183.5,247.5C 184.584,244.996 185.917,242.663 187.5,240.5C 188.674,239.486 189.34,238.153 189.5,236.5 Z M 189.5,247.5 C 191.048,247.821 191.715,248.821 191.5,250.5C 190.448,250.649 189.448,250.483 188.5,250C 189.252,249.329 189.586,248.496 189.5,247.5 Z"/></g>
<g><path style="opacity:1" fill="#7cbf7a" d="M 205.5,236.5 C 211.5,236.5 217.5,236.5 223.5,236.5C 223.167,239.167 222.833,241.833 222.5,244.5C 221.325,244.719 220.325,244.386 219.5,243.5C 220.309,241.929 220.643,240.262 220.5,238.5C 218.234,238.141 216.401,238.808 215,240.5C 213.383,246.754 212.216,253.087 211.5,259.5C 212.675,259.281 213.675,259.614 214.5,260.5C 211.232,261.487 207.898,261.82 204.5,261.5C 203.167,260.833 203.167,260.167 204.5,259.5C 206.451,259.773 207.951,259.107 209,257.5C 210.169,251.154 211.335,244.82 212.5,238.5C 207.728,237.603 205.395,239.603 205.5,244.5C 204.386,241.844 204.386,239.177 205.5,236.5 Z"/></g>
<g><path style="opacity:1" fill="#8ab877" d="M 235.5,236.5 C 236.833,236.5 238.167,236.5 239.5,236.5C 240.418,244.845 241.418,253.178 242.5,261.5C 241.5,261.5 240.5,261.5 239.5,261.5C 239.007,259.194 238.674,256.861 238.5,254.5C 234.774,254.177 231.107,254.511 227.5,255.5C 226.649,257.882 225.316,259.882 223.5,261.5C 223.167,261.167 222.833,260.833 222.5,260.5C 223.788,258.261 224.788,255.928 225.5,253.5C 225.66,251.847 226.326,250.514 227.5,249.5C 229.588,247.664 230.921,245.331 231.5,242.5C 231.328,241.508 231.662,240.842 232.5,240.5C 233.906,240.027 234.573,239.027 234.5,237.5C 234.5,236.833 234.833,236.5 235.5,236.5 Z M 235.5,246.5 C 236.434,247.568 236.768,248.901 236.5,250.5C 235.448,250.649 234.448,250.483 233.5,250C 234.305,248.887 234.972,247.721 235.5,246.5 Z"/></g>
<g><path style="opacity:0.991" fill="#6b7883" d="M 284.5,236.5 C 285.746,244.801 286.746,253.135 287.5,261.5C 286.5,261.5 285.5,261.5 284.5,261.5C 285.509,256.498 283.509,254.165 278.5,254.5C 276.833,254.667 275.167,254.833 273.5,255C 272.373,256.753 271.373,258.587 270.5,260.5C 269.675,261.386 268.675,261.719 267.5,261.5C 266.892,259.316 267.559,257.316 269.5,255.5C 270.906,255.027 271.573,254.027 271.5,252.5C 272.326,249.515 273.659,246.849 275.5,244.5C 276.906,244.027 277.573,243.027 277.5,241.5C 278.122,236.823 280.456,235.156 284.5,236.5 Z M 282.5,247.5 C 282.5,248.5 282.5,249.5 282.5,250.5C 278.69,249.754 278.69,248.754 282.5,247.5 Z"/></g>
<g><path style="opacity:0.996" fill="#587c8a" d="M 296.5,236.5 C 297.5,236.5 298.5,236.5 299.5,236.5C 297.813,243.758 296.98,251.092 297,258.5C 298.943,259.807 300.777,259.807 302.5,258.5C 303.728,257.694 304.728,256.694 305.5,255.5C 306.117,255.389 306.617,255.056 307,254.5C 307.495,252.527 307.662,250.527 307.5,248.5C 307.5,248.167 307.5,247.833 307.5,247.5C 309.258,244.146 310.258,240.479 310.5,236.5C 311.725,237.152 312.392,238.319 312.5,240C 311.479,245.968 309.979,251.801 308,257.5C 304.613,261.039 300.447,262.372 295.5,261.5C 294.094,261.027 293.427,260.027 293.5,258.5C 293.845,253.122 294.512,247.789 295.5,242.5C 295.325,240.379 295.659,238.379 296.5,236.5 Z"/></g>
<g><path style="opacity:0.988" fill="#637986" d="M 336.5,236.5 C 336.167,239.167 335.833,241.833 335.5,244.5C 334.5,244.5 333.5,244.5 332.5,244.5C 332.5,243.833 332.5,243.167 332.5,242.5C 333.434,241.432 333.768,240.099 333.5,238.5C 331.234,238.141 329.401,238.808 328,240.5C 326.895,246.858 325.728,253.191 324.5,259.5C 325.675,259.281 326.675,259.614 327.5,260.5C 324.232,261.487 320.898,261.82 317.5,261.5C 316.167,260.833 316.167,260.167 317.5,259.5C 321.803,259.265 323.47,256.931 322.5,252.5C 323.913,249.781 324.58,246.781 324.5,243.5C 324.5,243.167 324.5,242.833 324.5,242.5C 325.434,241.432 325.768,240.099 325.5,238.5C 323.833,238.5 322.167,238.5 320.5,238.5C 320.435,240.696 319.768,242.696 318.5,244.5C 317.571,243.311 317.238,241.978 317.5,240.5C 317.286,238.856 317.62,237.356 318.5,236C 324.681,235.181 330.681,235.347 336.5,236.5 Z"/></g>
<g><path style="opacity:0.655" fill="#c4524f" d="M 354.5,236.5 C 351.098,236.342 347.764,236.676 344.5,237.5C 347.605,234.216 350.939,233.883 354.5,236.5 Z"/></g>
<g><path style="opacity:0.993" fill="#71767f" d="M 354.5,236.5 C 355.833,237.167 356.833,238.167 357.5,239.5C 358.209,245.892 357.043,251.892 354,257.5C 350.265,261.096 345.765,262.429 340.5,261.5C 336.646,257.878 335.646,253.544 337.5,248.5C 338.537,247.07 339.204,245.403 339.5,243.5C 340.419,240.911 342.086,238.911 344.5,237.5C 347.764,236.676 351.098,236.342 354.5,236.5 Z M 353.5,240.5 C 354.657,244.117 354.657,247.784 353.5,251.5C 352.326,252.514 351.66,253.847 351.5,255.5C 350.167,256.167 349.167,257.167 348.5,258.5C 346.5,258.5 344.5,258.5 342.5,258.5C 341.523,251.625 343.523,245.792 348.5,241C 350.134,240.506 351.801,240.34 353.5,240.5 Z"/></g>
<g><path style="opacity:0.994" fill="#5a7b88" d="M 364.5,236.5 C 369.875,236.172 375.208,236.505 380.5,237.5C 375.88,238.493 371.214,238.827 366.5,238.5C 366.492,241.545 366.159,244.545 365.5,247.5C 367.5,247.5 369.5,247.5 371.5,247.5C 372.5,247.5 373.5,247.5 374.5,247.5C 371.663,249.402 368.329,250.069 364.5,249.5C 363.962,253.524 363.295,257.524 362.5,261.5C 361.5,261.5 360.5,261.5 359.5,261.5C 360.546,258.272 361.212,254.939 361.5,251.5C 361.739,246.231 362.739,241.231 364.5,236.5 Z"/></g>
<g><path style="opacity:0.987" fill="#497e8e" d="M 385.5,261.5 C 386.833,260.167 388.167,258.833 389.5,257.5C 389.5,256.833 389.5,256.167 389.5,255.5C 391.416,251.837 392.416,247.837 392.5,243.5C 392.5,243.167 392.5,242.833 392.5,242.5C 393.434,241.432 393.768,240.099 393.5,238.5C 392.167,238.5 390.833,238.5 389.5,238.5C 389.5,238.167 389.5,237.833 389.5,237.5C 393.123,236.242 396.79,236.242 400.5,237.5C 398.704,238.141 397.204,239.141 396,240.5C 394.895,246.858 393.728,253.191 392.5,259.5C 393.675,259.281 394.675,259.614 395.5,260.5C 392.232,261.487 388.898,261.82 385.5,261.5 Z"/></g>
<g><path style="opacity:0.997" fill="#4d7d8d" d="M 409.5,236.5 C 410.5,236.5 411.5,236.5 412.5,236.5C 411.167,244.166 409.834,251.832 408.5,259.5C 412.833,259.5 417.167,259.5 421.5,259.5C 416.604,261.446 411.271,262.113 405.5,261.5C 405.5,259.833 405.5,258.167 405.5,256.5C 405.5,255.833 405.5,255.167 405.5,254.5C 407.04,252.162 407.706,249.495 407.5,246.5C 407.5,246.167 407.5,245.833 407.5,245.5C 409.04,243.162 409.706,240.495 409.5,237.5C 409.5,237.167 409.5,236.833 409.5,236.5 Z"/></g>
<g><path style="opacity:0.993" fill="#527d8d" d="M 435.5,236.5 C 433.909,244.121 432.576,251.788 431.5,259.5C 435.555,259.176 439.555,259.509 443.5,260.5C 438.208,261.495 432.875,261.828 427.5,261.5C 428.675,257.958 429.341,254.291 429.5,250.5C 429.5,249.833 429.5,249.167 429.5,248.5C 431.416,244.837 432.416,240.837 432.5,236.5C 433.5,235.167 434.5,235.167 435.5,236.5 Z"/></g>
<g><path style="opacity:0.973" fill="#4e7d8c" d="M 455.5,236.5 C 460.833,236.5 466.167,236.5 471.5,236.5C 467.238,238.128 462.571,239.128 457.5,239.5C 456.607,242.084 456.274,244.751 456.5,247.5C 458.833,247.5 461.167,247.5 463.5,247.5C 463.833,247.5 464.167,247.5 464.5,247.5C 465.043,247.56 465.376,247.893 465.5,248.5C 461.959,249.2 458.459,249.867 455,250.5C 454.498,253.513 453.998,256.513 453.5,259.5C 457.884,259.174 462.217,259.508 466.5,260.5C 461.208,261.495 455.875,261.828 450.5,261.5C 450.963,258.518 451.296,255.518 451.5,252.5C 452.913,249.781 453.58,246.781 453.5,243.5C 453.338,241.473 453.505,239.473 454,237.5C 454.383,236.944 454.883,236.611 455.5,236.5 Z"/></g>
<g><path style="opacity:0.979" fill="#637a86" d="M 492.5,237.5 C 494.702,244.328 492.368,248.994 485.5,251.5C 486.275,253.396 487.275,255.063 488.5,256.5C 489.338,256.842 489.672,257.508 489.5,258.5C 489.5,259.5 489.5,260.5 489.5,261.5C 488.5,261.5 487.5,261.5 486.5,261.5C 485.662,261.158 485.328,260.492 485.5,259.5C 485.34,257.847 484.674,256.514 483.5,255.5C 482.662,255.158 482.328,254.492 482.5,253.5C 481.952,250.916 480.285,249.916 477.5,250.5C 477.518,254.446 476.518,258.112 474.5,261.5C 473.548,259.955 473.215,258.288 473.5,256.5C 473.5,255.833 473.5,255.167 473.5,254.5C 475.04,252.162 475.706,249.495 475.5,246.5C 475.5,246.167 475.5,245.833 475.5,245.5C 476.924,243.485 477.59,241.152 477.5,238.5C 477.5,237.5 477.5,236.5 477.5,235.5C 481.514,235.334 485.514,235.501 489.5,236C 490.737,236.232 491.737,236.732 492.5,237.5 Z M 490.5,242.5 C 489.89,243.391 489.557,244.391 489.5,245.5C 488.29,245.932 487.29,246.599 486.5,247.5C 484.833,247.5 483.167,247.5 481.5,247.5C 481.359,240.402 484.359,238.735 490.5,242.5 Z"/></g>
<g><path style="opacity:0.014" fill="#e9533d" d="M 161.5,236.5 C 160.993,240.083 159.993,243.417 158.5,246.5C 158.804,243.478 159.304,240.478 160,237.5C 160.383,236.944 160.883,236.611 161.5,236.5 Z"/></g>
<g><path style="opacity:1" fill="#7de6f8" d="M 89.5,237.5 C 95.5,237.5 101.5,237.5 107.5,237.5C 105.514,245.826 100.514,248.326 92.5,245C 89.1555,243.233 88.1555,240.733 89.5,237.5 Z"/></g>
<g><path style="opacity:0.024" fill="#ed493a" d="M 189.5,236.5 C 189.34,238.153 188.674,239.486 187.5,240.5C 187.229,238.62 187.896,237.287 189.5,236.5 Z"/></g>
<g><path style="opacity:0.215" fill="#f66f6e" d="M 296.5,236.5 C 299.614,235.077 301.281,236.243 301.5,240C 299.615,246.034 298.615,252.201 298.5,258.5C 299.833,258.5 301.167,258.5 302.5,258.5C 300.777,259.807 298.943,259.807 297,258.5C 296.98,251.092 297.813,243.758 299.5,236.5C 298.5,236.5 297.5,236.5 296.5,236.5 Z"/></g>
<g><path style="opacity:0.315" fill="#f27372" d="M 310.5,236.5 C 313.185,235.113 314.852,236.113 315.5,239.5C 313.821,246.549 311.988,253.549 310,260.5C 305.328,265.282 300.495,265.615 295.5,261.5C 300.447,262.372 304.613,261.039 308,257.5C 309.979,251.801 311.479,245.968 312.5,240C 312.392,238.319 311.725,237.152 310.5,236.5 Z"/></g>
<g><path style="opacity:0.291" fill="#f46c6a" d="M 324.5,242.5 C 324.607,240.621 324.107,240.288 323,241.5C 322.187,243.436 321.687,245.436 321.5,247.5C 317.293,246.617 315.96,244.284 317.5,240.5C 317.238,241.978 317.571,243.311 318.5,244.5C 319.768,242.696 320.435,240.696 320.5,238.5C 322.167,238.5 323.833,238.5 325.5,238.5C 325.768,240.099 325.434,241.432 324.5,242.5 Z"/></g>
<g><path style="opacity:0.275" fill="#f86562" d="M 336.5,236.5 C 337.88,236.962 338.547,237.962 338.5,239.5C 337.772,241.155 337.605,242.821 338,244.5C 338.383,243.944 338.883,243.611 339.5,243.5C 339.204,245.403 338.537,247.07 337.5,248.5C 337.611,246.352 336.944,246.019 335.5,247.5C 334.145,246.812 333.145,245.812 332.5,244.5C 333.5,244.5 334.5,244.5 335.5,244.5C 335.833,241.833 336.167,239.167 336.5,236.5 Z"/></g>
<g><path style="opacity:0.275" fill="#f67777" d="M 353.5,240.5 C 351.801,240.34 350.134,240.506 348.5,241C 343.523,245.792 341.523,251.625 342.5,258.5C 339.083,251.176 340.417,244.676 346.5,239C 348.5,238.333 350.5,238.333 352.5,239C 353.056,239.383 353.389,239.883 353.5,240.5 Z"/></g>
<g><path style="opacity:0.293" fill="#f36b69" d="M 364.5,236.5 C 367.146,235.836 369.979,235.502 373,235.5C 376.276,235.558 379.276,236.224 382,237.5C 382.783,239.319 382.283,240.652 380.5,241.5C 376.862,241.347 373.195,241.347 369.5,241.5C 368.691,243.071 368.357,244.738 368.5,246.5C 369.791,246.263 370.791,246.596 371.5,247.5C 369.5,247.5 367.5,247.5 365.5,247.5C 366.159,244.545 366.492,241.545 366.5,238.5C 371.214,238.827 375.88,238.493 380.5,237.5C 375.208,236.505 369.875,236.172 364.5,236.5 Z"/></g>
<g><path style="opacity:0.328" fill="#f36c6a" d="M 385.5,261.5 C 388.898,261.82 392.232,261.487 395.5,260.5C 394.675,259.614 393.675,259.281 392.5,259.5C 393.728,253.191 394.895,246.858 396,240.5C 397.204,239.141 398.704,238.141 400.5,237.5C 396.79,236.242 393.123,236.242 389.5,237.5C 390.105,235.974 391.271,234.974 393,234.5C 395.74,235.282 398.574,235.782 401.5,236C 402.293,237.085 402.96,238.252 403.5,239.5C 401.483,240.219 399.817,241.386 398.5,243C 396.8,248.075 395.967,253.242 396,258.5C 396.827,259.662 397.66,260.829 398.5,262C 398.333,262.5 398.167,263 398,263.5C 394.591,264.622 391.091,264.789 387.5,264C 386.619,263.292 385.953,262.458 385.5,261.5 Z"/></g>
<g><path style="opacity:0.287" fill="#ef6d6c" d="M 409.5,236.5 C 412.917,235.075 414.584,236.408 414.5,240.5C 413.163,246.513 411.83,252.513 410.5,258.5C 414.371,258.185 418.038,258.518 421.5,259.5C 417.167,259.5 412.833,259.5 408.5,259.5C 409.834,251.832 411.167,244.166 412.5,236.5C 411.5,236.5 410.5,236.5 409.5,236.5 Z"/></g>
<g><path style="opacity:0.313" fill="#f66e6c" d="M 435.5,236.5 C 436.809,237.624 437.475,239.124 437.5,241C 435.974,246.799 434.64,252.633 433.5,258.5C 437.182,258.335 440.848,258.501 444.5,259C 445.88,260.324 446.214,261.657 445.5,263C 439.104,265.445 433.104,264.945 427.5,261.5C 432.875,261.828 438.208,261.495 443.5,260.5C 439.555,259.509 435.555,259.176 431.5,259.5C 432.576,251.788 433.909,244.121 435.5,236.5 Z"/></g>
<g><path style="opacity:0.267" fill="#fc726f" d="M 471.5,236.5 C 473.898,237.882 474.065,239.549 472,241.5C 467.888,241.598 463.722,241.264 459.5,240.5C 459.167,242.5 458.833,244.5 458.5,246.5C 460.415,246.216 462.081,246.549 463.5,247.5C 461.167,247.5 458.833,247.5 456.5,247.5C 456.274,244.751 456.607,242.084 457.5,239.5C 462.571,239.128 467.238,238.128 471.5,236.5 Z"/></g>
<g><path style="opacity:0.251" fill="#f57270" d="M 490.5,242.5 C 484.359,238.735 481.359,240.402 481.5,247.5C 483.167,247.5 484.833,247.5 486.5,247.5C 484.052,248.473 481.385,248.806 478.5,248.5C 478.901,245.252 479.568,242.085 480.5,239C 483.167,238.333 485.833,238.333 488.5,239C 489.973,239.71 490.64,240.876 490.5,242.5 Z"/></g>
<g><path style="opacity:0.313" fill="#f5756d" d="M 172.5,251.5 C 173.135,248.507 173.301,245.507 173,242.5C 170.782,240.381 168.282,240.048 165.5,241.5C 164.036,247.081 163.036,252.748 162.5,258.5C 163.833,258.5 165.167,258.5 166.5,258.5C 164.393,259.468 162.059,259.802 159.5,259.5C 160.833,252.5 162.167,245.5 163.5,238.5C 174.103,237.754 177.103,242.088 172.5,251.5 Z"/></g>
<g><path style="opacity:0.317" fill="#f66358" d="M 205.5,236.5 C 204.386,239.177 204.386,241.844 205.5,244.5C 205.395,239.603 207.728,237.603 212.5,238.5C 211.335,244.82 210.169,251.154 209,257.5C 207.951,259.107 206.451,259.773 204.5,259.5C 205.209,258.596 206.209,258.263 207.5,258.5C 208.817,254.243 209.317,249.91 209,245.5C 208.333,246.167 207.667,246.833 207,247.5C 205.365,246.274 203.865,244.941 202.5,243.5C 202.887,240.762 203.887,238.428 205.5,236.5 Z"/></g>
<g><path style="opacity:0.335" fill="#f9756e" d="M 223.5,236.5 C 224.117,236.611 224.617,236.944 225,237.5C 225.667,240.167 225.667,242.833 225,245.5C 224.163,247.007 222.996,247.507 221.5,247C 219.459,245.758 218.293,243.925 218,241.5C 216.626,246.621 215.46,251.788 214.5,257C 215.62,258.737 216.62,260.571 217.5,262.5C 216.672,263.415 215.672,264.081 214.5,264.5C 211.557,263.756 208.557,263.256 205.5,263C 204.944,262.617 204.611,262.117 204.5,261.5C 207.898,261.82 211.232,261.487 214.5,260.5C 213.675,259.614 212.675,259.281 211.5,259.5C 212.216,253.087 213.383,246.754 215,240.5C 216.401,238.808 218.234,238.141 220.5,238.5C 220.643,240.262 220.309,241.929 219.5,243.5C 220.325,244.386 221.325,244.719 222.5,244.5C 222.833,241.833 223.167,239.167 223.5,236.5 Z"/></g>
<g><path style="opacity:0.118" fill="#e45640" d="M 234.5,237.5 C 234.573,239.027 233.906,240.027 232.5,240.5C 232.427,238.973 233.094,237.973 234.5,237.5 Z"/></g>
<g><path style="opacity:0.714" fill="#c7504d" d="M 310.5,236.5 C 310.258,240.479 309.258,244.146 307.5,247.5C 307.742,243.521 308.742,239.854 310.5,236.5 Z"/></g>
<g><path style="opacity:0.129" fill="#f36260" d="M 389.5,238.5 C 390.833,238.5 392.167,238.5 393.5,238.5C 393.768,240.099 393.434,241.432 392.5,242.5C 392.229,240.57 391.229,239.236 389.5,238.5 Z"/></g>
<g><path style="opacity:0.296" fill="#f67269" d="M 190.5,239.5 C 192.136,243.21 192.802,247.21 192.5,251.5C 190.167,251.5 187.833,251.5 185.5,251.5C 187.143,247.541 188.809,243.541 190.5,239.5 Z M 189.5,247.5 C 189.586,248.496 189.252,249.329 188.5,250C 189.448,250.483 190.448,250.649 191.5,250.5C 191.715,248.821 191.048,247.821 189.5,247.5 Z"/></g>
<g><path style="opacity:0.627" fill="#d14c49" d="M 432.5,236.5 C 432.416,240.837 431.416,244.837 429.5,248.5C 429.898,244.239 430.898,240.239 432.5,236.5 Z"/></g>
<g><path style="opacity:0.279" fill="#f7736a" d="M 235.5,240.5 C 237.217,243.845 237.884,247.511 237.5,251.5C 235.076,251.808 232.743,251.474 230.5,250.5C 232.18,247.14 233.847,243.807 235.5,240.5 Z M 235.5,246.5 C 234.972,247.721 234.305,248.887 233.5,250C 234.448,250.483 235.448,250.649 236.5,250.5C 236.768,248.901 236.434,247.568 235.5,246.5 Z"/></g>
<g><path style="opacity:0.216" fill="#ef6d6b" d="M 282.5,247.5 C 283.434,248.568 283.768,249.901 283.5,251.5C 280.753,251.813 278.086,251.48 275.5,250.5C 277.667,246.833 279.833,243.167 282,239.5C 282.497,242.146 282.664,244.813 282.5,247.5 Z M 282.5,247.5 C 278.69,248.754 278.69,249.754 282.5,250.5C 282.5,249.5 282.5,248.5 282.5,247.5 Z"/></g>
<g><path style="opacity:0.616" fill="#cd4c4a" d="M 409.5,237.5 C 409.706,240.495 409.04,243.162 407.5,245.5C 407.565,242.572 408.232,239.905 409.5,237.5 Z"/></g>
<g><path style="opacity:0.671" fill="#c94d4c" d="M 477.5,238.5 C 477.59,241.152 476.924,243.485 475.5,245.5C 475.41,242.848 476.076,240.515 477.5,238.5 Z"/></g>
<g><path style="opacity:0.046" fill="#f93e3e" d="M 131.5,241.5 C 132.5,241.5 133.5,241.5 134.5,241.5C 133.105,243.693 132.105,246.026 131.5,248.5C 131.5,246.167 131.5,243.833 131.5,241.5 Z"/></g>
<g><path style="opacity:0.318" fill="#f4706f" d="M 492.5,237.5 C 493.79,238.058 494.623,239.058 495,240.5C 496.956,246.335 495.123,250.335 489.5,252.5C 488.571,253.689 488.238,255.022 488.5,256.5C 487.275,255.063 486.275,253.396 485.5,251.5C 492.368,248.994 494.702,244.328 492.5,237.5 Z"/></g>
<g><path style="opacity:0.317" fill="#f7786f" d="M 175.5,238.5 C 179.898,243.416 180.565,248.916 177.5,255C 177.57,255.765 177.903,256.265 178.5,256.5C 178.34,258.153 177.674,259.486 176.5,260.5C 174.217,260.608 172.217,261.441 170.5,263C 166.167,263.667 161.833,263.667 157.5,263C 156.944,262.617 156.611,262.117 156.5,261.5C 172.895,262.438 179.228,254.771 175.5,238.5 Z"/></g>
<g><path style="opacity:0.11" fill="#e04240" d="M 277.5,241.5 C 277.573,243.027 276.906,244.027 275.5,244.5C 275.427,242.973 276.094,241.973 277.5,241.5 Z"/></g>
<g><path style="opacity:0.348" fill="#f37372" d="M 357.5,239.5 C 360.824,244.027 361.491,249.027 359.5,254.5C 357.883,256.121 356.716,258.121 356,260.5C 350.951,265.16 345.784,265.493 340.5,261.5C 345.765,262.429 350.265,261.096 354,257.5C 357.043,251.892 358.209,245.892 357.5,239.5 Z"/></g>
<g><path style="opacity:0.304" fill="#fa716c" d="M 189.5,236.5 C 192.629,234.956 194.795,235.956 196,239.5C 196.8,246.734 197.966,253.901 199.5,261C 197.929,265.291 195.929,265.458 193.5,261.5C 194.5,261.5 195.5,261.5 196.5,261.5C 196.371,253.763 195.538,246.096 194,238.5C 192.951,236.893 191.451,236.227 189.5,236.5 Z"/></g>
<g><path style="opacity:0.071" fill="#ed4b3a" d="M 231.5,242.5 C 230.921,245.331 229.588,247.664 227.5,249.5C 228.079,246.669 229.412,244.336 231.5,242.5 Z"/></g>
<g><path style="opacity:0.675" fill="#c45550" d="M 489.5,245.5 C 489.179,247.048 488.179,247.715 486.5,247.5C 487.29,246.599 488.29,245.932 489.5,245.5 Z"/></g>
<g><path style="opacity:1" fill="#afbece" d="M 38.5,246.5 C 44.8421,246.334 51.1754,246.5 57.5,247C 58.8333,248.333 58.8333,249.667 57.5,251C 51.1667,251.667 44.8333,251.667 38.5,251C 37.2721,249.51 37.2721,248.01 38.5,246.5 Z"/></g>
<g><path style="opacity:0.682" fill="#c6504e" d="M 324.5,243.5 C 324.58,246.781 323.913,249.781 322.5,252.5C 322.42,249.219 323.087,246.219 324.5,243.5 Z"/></g>
<g><path style="opacity:0.639" fill="#d24b48" d="M 392.5,243.5 C 392.416,247.837 391.416,251.837 389.5,255.5C 389.898,251.239 390.898,247.239 392.5,243.5 Z"/></g>
<g><path style="opacity:0.627" fill="#c74f4d" d="M 453.5,243.5 C 453.58,246.781 452.913,249.781 451.5,252.5C 451.42,249.219 452.087,246.219 453.5,243.5 Z"/></g>
<g><path style="opacity:1" fill="#72c780" d="M 28.5,246.5 C 31.6802,246.176 32.8469,247.51 32,250.5C 29.5,253.667 27,256.833 24.5,260C 20.6667,260.167 18.8333,258.333 19,254.5C 23.2807,253.766 26.4473,251.1 28.5,246.5 Z"/></g>
<g><path style="opacity:0.411" fill="#f56c69" d="M 359.5,261.5 C 360.5,261.5 361.5,261.5 362.5,261.5C 363.295,257.524 363.962,253.524 364.5,249.5C 368.329,250.069 371.663,249.402 374.5,247.5C 374.81,246.262 375.31,246.262 376,247.5C 377.009,249.025 377.509,250.692 377.5,252.5C 374.15,252.335 370.817,252.502 367.5,253C 366.287,256.616 365.287,260.282 364.5,264C 362.072,264.747 360.406,263.914 359.5,261.5 Z"/></g>
<g><path style="opacity:0.518" fill="#d74745" d="M 407.5,246.5 C 407.706,249.495 407.04,252.162 405.5,254.5C 405.565,251.572 406.232,248.905 407.5,246.5 Z"/></g>
<g><path style="opacity:0.525" fill="#d74745" d="M 475.5,246.5 C 475.706,249.495 475.04,252.162 473.5,254.5C 473.565,251.572 474.232,248.905 475.5,246.5 Z"/></g>
<g><path style="opacity:0.094" fill="#ec4c3b" d="M 183.5,247.5 C 182.921,250.331 181.588,252.664 179.5,254.5C 180.079,251.669 181.412,249.336 183.5,247.5 Z"/></g>
<g><path style="opacity:0.127" fill="#ff4f4e" d="M 466.5,249.5 C 467.404,250.209 467.737,251.209 467.5,252.5C 463.801,253.117 460.134,253.45 456.5,253.5C 459.833,252.167 463.167,250.833 466.5,249.5 Z"/></g>
<g><path style="opacity:0.284" fill="#f4706d" d="M 482.5,253.5 C 481.85,253.196 481.183,252.863 480.5,252.5C 479.944,256.175 478.944,259.675 477.5,263C 471.638,263.333 470.305,261.166 473.5,256.5C 473.215,258.288 473.548,259.955 474.5,261.5C 476.518,258.112 477.518,254.446 477.5,250.5C 480.285,249.916 481.952,250.916 482.5,253.5 Z"/></g>
<g><path style="opacity:0.851" fill="#c45650" d="M 307.5,248.5 C 307.662,250.527 307.495,252.527 307,254.5C 306.617,255.056 306.117,255.389 305.5,255.5C 305.721,252.933 306.388,250.599 307.5,248.5 Z"/></g>
<g><path style="opacity:0.34" fill="#fc7571" d="M 193.5,260.5 C 192.566,259.432 192.232,258.099 192.5,256.5C 190.143,256.337 187.81,256.503 185.5,257C 184.204,259.862 182.371,262.362 180,264.5C 178.961,263.756 178.461,262.756 178.5,261.5C 180.306,259.911 181.639,257.911 182.5,255.5C 186.107,254.511 189.774,254.177 193.5,254.5C 193.5,256.5 193.5,258.5 193.5,260.5 Z"/></g>
<g><path style="opacity:0.323" fill="#f86f66" d="M 225.5,253.5 C 224.788,255.928 223.788,258.261 222.5,260.5C 222.833,260.833 223.167,261.167 223.5,261.5C 225.316,259.882 226.649,257.882 227.5,255.5C 231.107,254.511 234.774,254.177 238.5,254.5C 238.674,256.861 239.007,259.194 239.5,261.5C 237.787,260.365 237.12,258.698 237.5,256.5C 235.08,256.292 232.747,256.626 230.5,257.5C 229.216,260.282 227.383,262.615 225,264.5C 223.59,263.213 222.09,262.046 220.5,261C 221.818,258.176 223.485,255.676 225.5,253.5 Z"/></g>
<g><path style="opacity:0.118" fill="#e14140" d="M 271.5,252.5 C 271.573,254.027 270.906,255.027 269.5,255.5C 269.427,253.973 270.094,252.973 271.5,252.5 Z"/></g>
<g><path style="opacity:0.273" fill="#f97473" d="M 284.5,261.5 C 283.766,260.122 283.099,258.622 282.5,257C 280.167,256.333 277.833,256.333 275.5,257C 274.415,259.696 272.749,261.863 270.5,263.5C 268.962,263.547 267.962,262.88 267.5,261.5C 268.675,261.719 269.675,261.386 270.5,260.5C 271.373,258.587 272.373,256.753 273.5,255C 275.167,254.833 276.833,254.667 278.5,254.5C 283.509,254.165 285.509,256.498 284.5,261.5 Z"/></g>
<g><path style="opacity:0.094" fill="#ea3c3b" d="M 353.5,251.5 C 353.771,253.38 353.104,254.713 351.5,255.5C 351.66,253.847 352.326,252.514 353.5,251.5 Z"/></g>
<g><path style="opacity:0.655" fill="#c4504f" d="M 361.5,251.5 C 361.212,254.939 360.546,258.272 359.5,261.5C 359.135,259.412 359.135,257.079 359.5,254.5C 360.167,253.5 360.833,252.5 361.5,251.5 Z"/></g>
<g><path style="opacity:0.604" fill="#c7504d" d="M 429.5,250.5 C 429.341,254.291 428.675,257.958 427.5,261.5C 426.957,261.44 426.624,261.107 426.5,260.5C 427.26,256.98 428.26,253.647 429.5,250.5 Z"/></g>
<g><path style="opacity:1" fill="#adbccd" d="M 37.5,256.5 C 41.8461,256.334 46.1794,256.501 50.5,257C 51.8333,258 51.8333,259 50.5,260C 46.1794,260.499 41.8461,260.666 37.5,260.5C 37.5,259.167 37.5,257.833 37.5,256.5 Z"/></g>
<g><path style="opacity:0.774" fill="#91604f" d="M 67.5,254.5 C 70.122,256.644 73.122,257.977 76.5,258.5C 76.5,260.833 76.5,263.167 76.5,265.5C 74.1417,265.253 72.1417,265.919 70.5,267.5C 69.5,267.5 68.5,267.5 67.5,267.5C 67.5,263.167 67.5,258.833 67.5,254.5 Z"/></g>
<g><path style="opacity:0.51" fill="#de5f42" d="M 157.5,252.5 C 157.784,254.415 157.451,256.081 156.5,257.5C 156.062,257.565 155.728,257.399 155.5,257C 156.099,255.378 156.766,253.878 157.5,252.5 Z"/></g>
<g><path style="opacity:0.565" fill="#d06f4b" d="M 171.5,254.5 C 171.5,256.5 170.5,257.5 168.5,257.5C 169.167,256.167 170.167,255.167 171.5,254.5 Z"/></g>
<g><path style="opacity:0.153" fill="#ff6865" d="M 239.5,236.5 C 240.927,238.148 241.76,240.148 242,242.5C 242.834,248.669 243.667,254.835 244.5,261C 243.422,265.483 241.755,265.649 239.5,261.5C 240.5,261.5 241.5,261.5 242.5,261.5C 241.418,253.178 240.418,244.845 239.5,236.5 Z"/></g>
<g><path style="opacity:0.522" fill="#d34947" d="M 451.5,252.5 C 451.296,255.518 450.963,258.518 450.5,261.5C 449.379,258.409 449.713,255.409 451.5,252.5 Z"/></g>
<g><path style="opacity:0.047" fill="#e4403e" d="M 483.5,255.5 C 484.674,256.514 485.34,257.847 485.5,259.5C 483.896,258.713 483.229,257.38 483.5,255.5 Z"/></g>
<g><path style="opacity:0.307" fill="#fd706e" d="M 284.5,236.5 C 285.222,236.918 285.722,237.584 286,238.5C 287.577,246.784 288.744,255.118 289.5,263.5C 287.302,263.88 285.635,263.213 284.5,261.5C 285.5,261.5 286.5,261.5 287.5,261.5C 286.746,253.135 285.746,244.801 284.5,236.5 Z"/></g>
<g><path style="opacity:0.035" fill="#e3423f" d="M 295.5,242.5 C 294.512,247.789 293.845,253.122 293.5,258.5C 292.204,252.987 292.871,247.654 295.5,242.5 Z"/></g>
<g><path style="opacity:0.475" fill="#c74d4d" d="M 351.5,255.5 C 351.5,257.5 350.5,258.5 348.5,258.5C 349.167,257.167 350.167,256.167 351.5,255.5 Z"/></g>
<g><path style="opacity:0.198" fill="#cf4748" d="M 322.5,252.5 C 323.47,256.931 321.803,259.265 317.5,259.5C 320.392,258.053 322.058,255.719 322.5,252.5 Z"/></g>
<g><path style="opacity:0.197" fill="#cf4548" d="M 389.5,257.5 C 388.167,258.833 386.833,260.167 385.5,261.5C 384.596,260.791 384.263,259.791 384.5,258.5C 386.292,258.634 387.958,258.301 389.5,257.5 Z"/></g>
<g><path style="opacity:1" fill="#adb8c8" d="M 91.5,258.5 C 96.1667,258.5 100.833,258.5 105.5,258.5C 105.5,260.833 105.5,263.167 105.5,265.5C 100.833,265.5 96.1667,265.5 91.5,265.5C 91.5,263.167 91.5,260.833 91.5,258.5 Z"/></g>
<g><path style="opacity:0.343" fill="#f77170" d="M 332.5,242.5 C 331.905,239.887 331.071,239.887 330,242.5C 329.325,246.865 328.492,251.198 327.5,255.5C 328.655,258.124 329.489,260.791 330,263.5C 329.275,264.059 328.442,264.392 327.5,264.5C 324.525,263.861 321.525,263.361 318.5,263C 317.944,262.617 317.611,262.117 317.5,261.5C 320.898,261.82 324.232,261.487 327.5,260.5C 326.675,259.614 325.675,259.281 324.5,259.5C 325.728,253.191 326.895,246.858 328,240.5C 329.401,238.808 331.234,238.141 333.5,238.5C 333.768,240.099 333.434,241.432 332.5,242.5 Z"/></g>
<g><path style="opacity:0.342" fill="#fc6f6c" d="M 405.5,256.5 C 405.5,258.167 405.5,259.833 405.5,261.5C 411.271,262.113 416.604,261.446 421.5,259.5C 422.391,260.261 423.058,261.261 423.5,262.5C 416.777,265.494 410.277,265.161 404,261.5C 403.797,259.609 404.297,257.943 405.5,256.5 Z"/></g>
<g><path style="opacity:0.356" fill="#f46e6c" d="M 464.5,247.5 C 464.56,246.957 464.893,246.624 465.5,246.5C 466.386,247.325 466.719,248.325 466.5,249.5C 463.167,250.833 459.833,252.167 456.5,253.5C 456.5,255.167 456.5,256.833 456.5,258.5C 460.226,258.177 463.893,258.511 467.5,259.5C 468.747,261.042 468.747,262.542 467.5,264C 463.193,264.299 459.026,264.466 455,264.5C 453.122,263.947 451.622,262.947 450.5,261.5C 455.875,261.828 461.208,261.495 466.5,260.5C 462.217,259.508 457.884,259.174 453.5,259.5C 453.998,256.513 454.498,253.513 455,250.5C 458.459,249.867 461.959,249.2 465.5,248.5C 465.376,247.893 465.043,247.56 464.5,247.5 Z"/></g>
<g><path style="opacity:0.333" fill="#fb6864" d="M 489.5,258.5 C 490.601,259.848 491.601,261.348 492.5,263C 489.921,265.088 487.921,264.588 486.5,261.5C 487.5,261.5 488.5,261.5 489.5,261.5C 489.5,260.5 489.5,259.5 489.5,258.5 Z"/></g>
<g><path style="opacity:0.31" fill="#f34442" d="M 76.5,258.5 C 81.5,258.5 86.5,258.5 91.5,258.5C 91.5,260.833 91.5,263.167 91.5,265.5C 86.5,265.5 81.5,265.5 76.5,265.5C 76.5,263.167 76.5,260.833 76.5,258.5 Z M 77.5,259.5 C 81.8839,259.174 86.2172,259.508 90.5,260.5C 89.9017,261.795 89.4017,263.128 89,264.5C 88.5917,262.59 87.4251,261.59 85.5,261.5C 83.0983,263.049 80.4317,263.716 77.5,263.5C 77.5,262.167 77.5,260.833 77.5,259.5 Z"/></g>
<g><path style="opacity:0.155" fill="#fc4141" d="M 105.5,258.5 C 111.167,258.5 116.833,258.5 122.5,258.5C 117.36,259.488 112.026,259.821 106.5,259.5C 106.297,261.39 106.963,262.89 108.5,264C 113.684,264.174 118.684,264.674 123.5,265.5C 117.5,265.5 111.5,265.5 105.5,265.5C 105.5,263.167 105.5,260.833 105.5,258.5 Z"/></g>
<g><path style="opacity:1" fill="#dfe8f2" d="M 76.5,265.5 C 81.5,265.5 86.5,265.5 91.5,265.5C 96.1667,265.5 100.833,265.5 105.5,265.5C 111.5,265.5 117.5,265.5 123.5,265.5C 123.856,267.19 124.856,268.19 126.5,268.5C 126.814,281.579 126.48,294.579 125.5,307.5C 122.833,307.5 120.167,307.5 117.5,307.5C 117.666,297.494 117.5,287.494 117,277.5C 116.167,276.667 115.333,275.833 114.5,275C 103.833,274.333 93.1667,274.333 82.5,275C 81.6919,275.308 81.0253,275.808 80.5,276.5C 79.524,286.781 79.1907,297.114 79.5,307.5C 76.2234,307.784 73.0567,307.451 70,306.5C 69.187,293.425 69.3537,280.425 70.5,267.5C 72.1417,265.919 74.1417,265.253 76.5,265.5 Z"/></g>
<g><path style="opacity:0.725" fill="#e57e7d" d="M 123.5,265.5 C 127.083,266.007 130.417,267.007 133.5,268.5C 131.167,268.5 128.833,268.5 126.5,268.5C 124.856,268.19 123.856,267.19 123.5,265.5 Z"/></g>
<g><path style="opacity:1" fill="#b8acb9" d="M 67.5,267.5 C 68.5,267.5 69.5,267.5 70.5,267.5C 69.3537,280.425 69.187,293.425 70,306.5C 73.0567,307.451 76.2234,307.784 79.5,307.5C 92.1667,307.5 104.833,307.5 117.5,307.5C 120.167,307.5 122.833,307.5 125.5,307.5C 128.833,307.5 132.167,307.5 135.5,307.5C 110.67,308.663 85.67,308.83 60.5,308C 59.6195,307.292 58.9528,306.458 58.5,305.5C 58.5,297.5 58.5,289.5 58.5,281.5C 58.5,278.5 58.5,275.5 58.5,272.5C 60.7793,269.558 63.7793,267.891 67.5,267.5 Z"/></g>
<g><path style="opacity:1" fill="#acb9ca" d="M 126.5,268.5 C 128.833,268.5 131.167,268.5 133.5,268.5C 133.81,270.144 134.81,271.144 136.5,271.5C 137.457,282.783 137.79,294.116 137.5,305.5C 137.5,306.833 136.833,307.5 135.5,307.5C 132.167,307.5 128.833,307.5 125.5,307.5C 126.48,294.579 126.814,281.579 126.5,268.5 Z"/></g>
<g><path style="opacity:0.373" fill="#e16b6c" d="M 133.5,268.5 C 135.19,268.856 136.19,269.856 136.5,271.5C 134.81,271.144 133.81,270.144 133.5,268.5 Z"/></g>
<g><path style="opacity:1" fill="#388092" d="M 117.5,307.5 C 104.833,307.5 92.1667,307.5 79.5,307.5C 79.1907,297.114 79.524,286.781 80.5,276.5C 81.0253,275.808 81.6919,275.308 82.5,275C 93.1667,274.333 103.833,274.333 114.5,275C 115.333,275.833 116.167,276.667 117,277.5C 117.5,287.494 117.666,297.494 117.5,307.5 Z"/></g>
<g><path style="opacity:0.649" fill="#df6f71" d="M 136.5,271.5 C 137.966,272.347 138.8,273.68 139,275.5C 139.667,285.167 139.667,294.833 139,304.5C 138.617,305.056 138.117,305.389 137.5,305.5C 137.79,294.116 137.457,282.783 136.5,271.5 Z"/></g>
<g><path style="opacity:0.287" fill="#dd4440" d="M 6.5,281.5 C 23.8333,281.5 41.1667,281.5 58.5,281.5C 58.5,289.5 58.5,297.5 58.5,305.5C 57.508,298.018 57.1746,290.352 57.5,282.5C 40.3251,282.83 23.3251,282.497 6.5,281.5 Z"/></g>
</svg>
